arm26_states
version=1
nRows=27
nColumns=17
inDegrees=yes

# SIMM Motion File Header:
name arm26_states
datacolumns 17
datarows 27
otherdata 1
range 0.00000000 0.12157104
endheader
time	/jointset/r_shoulder/r_shoulder_elev/value	/jointset/r_shoulder/r_shoulder_elev/speed	/jointset/r_elbow/r_elbow_flex/value	/jointset/r_elbow/r_elbow_flex/speed	/forceset/TRIlong/activation	/forceset/TRIlong/fiber_length	/forceset/TRIlat/activation	/forceset/TRIlat/fiber_length	/forceset/TRImed/activation	/forceset/TRImed/fiber_length	/forceset/BIClong/activation	/forceset/BIClong/fiber_length	/forceset/BICshort/activation	/forceset/BICshort/fiber_length	/forceset/BRA/activation	/forceset/BRA/fiber_length
      0.00000000	     -1.77140124	      1.04607325	      3.34964357	      1.56818703	      0.05079657	      0.13620585	      0.02314055	      0.07162110	      0.02237547	      0.06668629	      0.02000000	      0.14852600	      0.02000000	      0.14746841	      0.02000000	      0.09257743
      0.00389766	     -1.76710883	      1.15595634	      3.35602088	      1.70728715	      0.04808619	      0.13621566	      0.02217580	      0.07162608	      0.02145140	      0.06669117	      0.01949685	      0.14852583	      0.01925678	      0.14746997	      0.01919230	      0.09257806
      0.00779531	     -1.76239619	      1.25999271	      3.36299781	      1.88508880	      0.04551095	      0.13623461	      0.02125644	      0.07163540	      0.02057038	      0.06670007	      0.01931846	      0.14852604	      0.01859914	      0.14747542	      0.01841505	      0.09258053
      0.01134109	     -1.75778484	      1.33747320	      3.37009720	      2.13840218	      0.04328640	      0.13625835	      0.02046266	      0.07164632	      0.01980957	      0.06671026	      0.02075466	      0.14851962	      0.01807989	      0.14748215	      0.01774162	      0.09258336
      0.01488686	     -1.75294321	      1.38830618	      3.37834012	      2.54062702	      0.04118149	      0.13628682	      0.01971600	      0.07165865	      0.01909415	      0.06672158	      0.02446186	      0.14849583	      0.01764625	      0.14748936	      0.01711265	      0.09258621
      0.02123820	     -1.74404947	      1.39293469	      3.39803338	      3.78007745	      0.03768812	      0.13634571	      0.01848419	      0.07168280	      0.01791432	      0.06674351	      0.03347745	      0.14842310	      0.01706632	      0.14750086	      0.01608223	      0.09259027
      0.02758953	     -1.73549471	      1.28259566	      3.42794015	      5.76065999	      0.03451761	      0.13641087	      0.01736583	      0.07170926	      0.01684330	      0.06676758	      0.04329572	      0.14833688	      0.01670828	      0.14750825	      0.01514547	      0.09259193
      0.03261039	     -1.72943270	      1.12140286	      3.46189356	      7.83864094	      0.03221739	      0.13646540	      0.01655729	      0.07173241	      0.01606919	      0.06678891	      0.05089527	      0.14826750	      0.01656745	      0.14751026	      0.01446668	      0.09259017
      0.03893957	     -1.72320378	      0.83122522	      3.52138432	     11.07126441	      0.02955215	      0.13653763	      0.01562498	      0.07176570	      0.01517688	      0.06682007	      0.05999408	      0.14818136	      0.01668025	      0.14750537	      0.01368014	      0.09258303
      0.04526875	     -1.71910145	      0.44975722	      3.60338856	     14.94747532	      0.02712366	      0.13661429	      0.01477943	      0.07180527	      0.01436785	      0.06685774	      0.06841417	      0.14809777	      0.01783638	      0.14748001	      0.01295902	      0.09256992
      0.05144464	     -1.71770214	     -0.01125405	      3.70892757	     19.32604851	      0.02495972	      0.13669434	      0.01402587	      0.07185176	      0.01364693	      0.06690256	      0.07576434	      0.14801926	      0.01925174	      0.14743909	      0.01230327	      0.09255047
      0.05762053	     -1.71941475	     -0.55744120	      3.84322732	     24.25399396	      0.02297943	      0.13678070	      0.01333695	      0.07190777	      0.01298794	      0.06695705	      0.08223140	      0.14794379	      0.02061639	      0.14739062	      0.01168932	      0.09252359
      0.06379642	     -1.72475182	     -1.18440884	      4.00953182	     29.68274430	      0.02116558	      0.13687450	      0.01270840	      0.07197488	      0.01238684	      0.06702270	      0.08779987	      0.14787084	      0.02182560	      0.14733829	      0.01111440	      0.09248841
      0.06933485	     -1.73302101	     -1.81214433	      4.18831464	     34.93705082	      0.01966785	      0.13696586	      0.01219314	      0.07204563	      0.01189430	      0.06709219	      0.09205696	      0.14780694	      0.02275605	      0.14728878	      0.01063069	      0.09244922
      0.07487327	     -1.74493325	     -2.49958668	      4.39713040	     40.52237067	      0.01828163	      0.13706480	      0.01172093	      0.07212727	      0.01144313	      0.06717257	      0.09549738	      0.14774436	      0.02349920	      0.14723726	      0.01017582	      0.09240226
      0.07843049	     -1.75465721	     -2.97158933	      4.54790460	     44.26855548	      0.01744587	      0.13713267	      0.01143873	      0.07218587	      0.01117363	      0.06723036	      0.09734089	      0.14770449	      0.02389074	      0.14720277	      0.00989692	      0.09236749
      0.08158807	     -1.76473419	     -3.41558896	      4.69308360	     47.70586085	      0.01673762	      0.13719588	      0.01120108	      0.07224207	      0.01094675	      0.06728583	      0.09871415	      0.14766923	      0.02417510	      0.14717121	      0.00964932	      0.09233255
      0.08474566	     -1.77625458	     -3.88580967	      4.84928809	     51.25117001	      0.01605947	      0.13726199	      0.01097499	      0.07230238	      0.01073098	      0.06734541	      0.09992029	      0.14763387	      0.02442184	      0.14713852	      0.00939966	      0.09229453
      0.08962754	     -1.79709802	     -4.66353168	      5.11326060	     56.93173218	      0.01506703	      0.13737015	      0.01064717	      0.07240401	      0.01041826	      0.06744584	      0.10129231	      0.14757878	      0.02468405	      0.14708557	      0.00901040	      0.09223021
      0.09450942	     -1.82188004	     -5.49866170	      5.40550064	     62.82702447	      0.01413847	      0.13748587	      0.01034411	      0.07251641	      0.01012935	      0.06755714	      0.10225239	      0.14752266	      0.02485259	      0.14702915	      0.00861727	      0.09215896
      0.09939131	     -1.85087084	     -6.38640234	      5.72698805	     68.90711295	      0.01326939	      0.13760944	      0.01006346	      0.07264004	      0.00986019	      0.06767792	      0.10274399	      0.14746493	      0.02490890	      0.14696868	      0.00822003	      0.09208049
      0.10207525	     -1.86868546	     -6.88983754	      5.91648124	     72.30258255	      0.01281545	      0.13768086	      0.00991745	      0.07271238	      0.00971455	      0.06774730	      0.10287115	      0.14743226	      0.02491096	      0.14693346	      0.00800002	      0.09203429
      0.10587870	     -1.89626097	     -7.61121030	      6.20067810	     77.14178248	      0.01219960	      0.13778632	      0.00971293	      0.07281743	      0.00951003	      0.06785158	      0.10287907	      0.14738456	      0.02490635	      0.14688070	      0.00768685	      0.09196492
      0.11013481	     -1.93038180	     -8.42360383	      6.54055190	     82.57147771	      0.01154671	      0.13791035	      0.00948660	      0.07294296	      0.00928370	      0.06797720	      0.10284689	      0.14732856	      0.02489475	      0.14681709	      0.00733452	      0.09188198
      0.11439092	     -1.96796821	     -9.23917271	      6.90354568	     88.00357065	      0.01092992	      0.13804084	      0.00926230	      0.07307895	      0.00905940	      0.06811204	      0.10277099	      0.14726896	      0.02487350	      0.14674822	      0.00698017	      0.09179343
      0.11798098	     -2.00237605	     -9.92963920	      7.22770598	     92.58364703	      0.01043618	      0.13815600	      0.00907455	      0.07319969	      0.00887165	      0.06823373	      0.10267231	      0.14721546	      0.02484791	      0.14668578	      0.00667971	      0.09171437
      0.12157104	     -2.03926432	    -10.62107107	      7.56829404	     97.15512040	      0.00996516	      0.13827531	      0.00888788	      0.07332934	      0.00868498	      0.06836035	      0.10253769	      0.14715872	      0.02481456	      0.14661919	      0.00637803	      0.09163139
